<svg xmlns="http://www.w3.org/2000/svg" height="24" viewBox="0 -960 960 960" width="24"><path d="M200-800v253.308-1V-160v-640 160-160Zm100 380h143.846q5.923-11.461 12.769-21.077 6.846-9.615 14.616-18.923H300v40Zm0 160h115.461q-1.923-10-2.653-20-.731-10-.27-20H300v40Zm-75.385 140Q197-120 178.5-138.5 160-157 160-184.615v-590.77Q160-803 178.5-821.5 197-840 224.615-840H540l180 180v120.769q-9.769-3.384-19.769-4.808-10-1.423-20.231-2.653V-640H520v-160H224.615q-9.23 0-16.923 7.692Q200-784.615 200-775.385v590.77q0 9.23 7.692 16.923Q215.385-160 224.615-160h231q7.539 11.692 16.77 21.423 9.23 9.731 19.384 18.577H224.615ZM660-187.692q47.385 0 79.846-32.462 32.462-32.461 32.462-79.846 0-47.385-32.462-79.846-32.461-32.462-79.846-32.462-47.385 0-79.846 32.462-32.462 32.461-32.462 79.846 0 47.385 32.462 79.846 32.461 32.462 79.846 32.462Zm204 119.23L752.923-179.537Q733.462-164 709.731-155.846T660-147.692q-63.462 0-107.885-44.423T507.692-300q0-63.462 44.423-107.885T660-452.308q63.462 0 107.885 44.423T812.308-300q0 26-8.154 49.731t-23.692 43.192L891.539-96 864-68.461Z"/></svg>